<mxfile host="app.diagrams.net" modified="2023-08-12T17:24:49.423Z" agent="Mozilla/5.0 (Windows NT 10.0; Win64; x64) AppleWebKit/537.36 (KHTML, like Gecko) Chrome/114.0.0.0 Safari/537.36 OPR/100.0.0.0" etag="TAb1ctRjhAyUyd8hiZQx" version="21.6.8" type="github">
  <diagram name="PÃ¡gina-1" id="qsprEDrnKjSDkDAt6ycz">
    <mxGraphModel dx="987" dy="571" grid="1" gridSize="10" guides="1" tooltips="1" connect="1" arrows="1" fold="1" page="1" pageScale="1" pageWidth="827" pageHeight="1169" math="0" shadow="0">
      <root>
        <mxCell id="0" />
        <mxCell id="1" parent="0" />
        <mxCell id="zYkmVKhotaVS6C0Z0ZAc-7" value="" style="edgeStyle=orthogonalEdgeStyle;rounded=0;orthogonalLoop=1;jettySize=auto;html=1;" edge="1" parent="1" source="zYkmVKhotaVS6C0Z0ZAc-1" target="zYkmVKhotaVS6C0Z0ZAc-2">
          <mxGeometry relative="1" as="geometry" />
        </mxCell>
        <mxCell id="zYkmVKhotaVS6C0Z0ZAc-1" value="Inicio" style="ellipse;whiteSpace=wrap;html=1;" vertex="1" parent="1">
          <mxGeometry x="160" y="50" width="90" height="60" as="geometry" />
        </mxCell>
        <mxCell id="zYkmVKhotaVS6C0Z0ZAc-8" value="" style="edgeStyle=orthogonalEdgeStyle;rounded=0;orthogonalLoop=1;jettySize=auto;html=1;" edge="1" parent="1" source="zYkmVKhotaVS6C0Z0ZAc-2" target="zYkmVKhotaVS6C0Z0ZAc-3">
          <mxGeometry relative="1" as="geometry" />
        </mxCell>
        <mxCell id="zYkmVKhotaVS6C0Z0ZAc-2" value="num1, num2" style="shape=parallelogram;perimeter=parallelogramPerimeter;whiteSpace=wrap;html=1;fixedSize=1;" vertex="1" parent="1">
          <mxGeometry x="152.5" y="150" width="105" height="50" as="geometry" />
        </mxCell>
        <mxCell id="zYkmVKhotaVS6C0Z0ZAc-9" value="" style="edgeStyle=orthogonalEdgeStyle;rounded=0;orthogonalLoop=1;jettySize=auto;html=1;" edge="1" parent="1" source="zYkmVKhotaVS6C0Z0ZAc-3" target="zYkmVKhotaVS6C0Z0ZAc-4">
          <mxGeometry relative="1" as="geometry" />
        </mxCell>
        <mxCell id="zYkmVKhotaVS6C0Z0ZAc-3" value="" style="rounded=0;whiteSpace=wrap;html=1;" vertex="1" parent="1">
          <mxGeometry x="145" y="240" width="120" height="60" as="geometry" />
        </mxCell>
        <mxCell id="zYkmVKhotaVS6C0Z0ZAc-6" value="" style="edgeStyle=orthogonalEdgeStyle;rounded=0;orthogonalLoop=1;jettySize=auto;html=1;" edge="1" parent="1" source="zYkmVKhotaVS6C0Z0ZAc-4" target="zYkmVKhotaVS6C0Z0ZAc-5">
          <mxGeometry relative="1" as="geometry" />
        </mxCell>
        <mxCell id="zYkmVKhotaVS6C0Z0ZAc-4" value="r" style="shape=document;whiteSpace=wrap;html=1;boundedLbl=1;" vertex="1" parent="1">
          <mxGeometry x="152.5" y="350" width="105" height="60" as="geometry" />
        </mxCell>
        <mxCell id="zYkmVKhotaVS6C0Z0ZAc-5" value="Fim" style="ellipse;whiteSpace=wrap;html=1;" vertex="1" parent="1">
          <mxGeometry x="158.75" y="480" width="92.5" height="60" as="geometry" />
        </mxCell>
      </root>
    </mxGraphModel>
  </diagram>
</mxfile>
